<?xml version="1.0" encoding="UTF-8"?>
<svg id="Capa_1" data-name="Capa 1" xmlns="http://www.w3.org/2000/svg" viewBox="0 0 223.81 212.61">
  <defs>
    <style>
      .cls-1 {
        fill: #b3b2b2;
      }
    </style>
  </defs>
  <path class="cls-1" d="M4.74,14.36c11.52,4.77,23.05,9.54,34.57,14.31-1.66-1.66-3.33-3.33-4.99-4.99,7.42,38.28,14.83,76.56,22.25,114.84,.59,3.05,3.93,5.25,6.9,5.25h120.8c3.32,0,5.84-2.25,6.9-5.25,10.77-30.67,21.54-61.34,32.3-92.01,1.61-4.58-2.56-8.87-6.9-9.05-46.4-1.91-92.8-3.83-139.2-5.74-9.2-.38-9.19,13.92,0,14.3,46.4,1.91,92.8,3.83,139.2,5.74-2.3-3.02-4.6-6.03-6.9-9.05-10.77,30.67-21.54,61.34-32.3,92.01,2.3-1.75,4.6-3.5,6.9-5.25H63.46c2.3,1.75,4.6,3.5,6.9,5.25-5.67-29.25-11.34-58.5-17-87.76-1.34-6.91-2.68-13.81-4.01-20.72-.6-3.12-.72-7.11-3.07-9.52-3.93-4.03-12.55-5.73-17.57-7.8C21.98,6.13,15.26,3.35,8.54,.57,.04-2.95-3.66,10.88,4.74,14.36h0Z"/>
  <path class="cls-1" d="M66.9,134.7c-3.71,10.73-7.42,21.46-11.13,32.19-1.54,4.45,2.49,9.05,6.9,9.05h123.98c9.2,0,9.22-14.3,0-14.3H62.67c2.3,3.02,4.6,6.03,6.9,9.05,3.71-10.73,7.42-21.46,11.13-32.19,3.01-8.72-10.8-12.46-13.79-3.8h0Z"/>
  <path class="cls-1" d="M95.82,188.29c0,.48-.04,.96-.06,1.44-.05,1.37-.02-.47,.08-.49-.09,.02-.45,1.97-.53,2.26-.03,.11-.49,1.26-.46,1.3-.09-.09,.81-1.6,.16-.46-.45,.8-.89,1.56-1.39,2.33-.81,1.24,.88-.78,.15-.21-.28,.22-.51,.58-.76,.83-.21,.21-.42,.42-.64,.63l-.33,.3c-.58,.49-.45,.4,.4-.27-.16-.06-1.72,1.14-1.89,1.23-.26,.15-.54,.27-.8,.42-1.19,.69,1.52-.43-.18,.08-.74,.22-1.47,.46-2.23,.62-1.46,.3,.19-.18,.28,0-.02-.04-1.06,.08-1.19,.09-.81,.03-1.6-.03-2.4-.07-1.04-.05,1.81,.37,.27,.02-.46-.1-.91-.2-1.36-.32s-.87-.28-1.31-.43c-1.03-.33,.46-.06,.44,.2,0-.08-1.74-.93-1.99-1.08-.31-.2-.61-.45-.93-.64-.83-.47,1.28,1.18,.22,.13-.17-.17-1.87-1.94-1.88-1.93,.19-.08,.88,1.27,.29,.38-.25-.38-.51-.75-.74-1.13-.15-.26-.3-.52-.44-.79l-.21-.4c-.32-.7-.27-.54,.16,.46,.09-.09-.65-1.96-.71-2.19-.08-.3-.13-.61-.2-.91-.32-1.42,.11,1.66-.02-.21-.05-.72-.06-1.45-.02-2.17,.04-.78,.54-1.55-.05,.02,.1-.26,.12-.64,.18-.92,.17-.76,.42-1.48,.65-2.21,.48-1.51-.78,1.4,0,.03,.23-.39,.42-.8,.65-1.19,.19-.32,.41-.63,.61-.95,.76-1.21,.07,.29-.17,.19,.02,0,1.44-1.53,1.55-1.63l.33-.3c.47-.39,.46-.39-.03-.01l-.37,.28c.24-.18,.49-.35,.74-.52,.29-.2,2.38-1.26,2.37-1.33,0,.09-1.71,.61-.44,.2,.44-.14,.87-.3,1.31-.43,.3-.08,.6-.16,.9-.23,.34-.08,1.54-.02,.44-.11-1.2-.1,.23,0,.47-.02,.4-.02,.8-.03,1.21-.02s.8,.04,1.2,.06c1.54,.05-1.4-.34-.03,0,.9,.23,1.78,.46,2.67,.75,1.43,.46-1-.65-.24-.1,.41,.3,.96,.49,1.4,.75,.26,.15,.51,.32,.76,.48,.25,.17,.5,.34,.74,.52-.85-.66-.98-.75-.4-.27,.53,.53,1.06,1.06,1.59,1.59,1.1,1.1-.85-1.35,0-.03,.25,.38,.51,.75,.74,1.13s.43,.8,.65,1.19c.68,1.19-.45-1.45,0-.03,.28,.89,.52,1.76,.75,2.67,.27,1.08-.31-.38-.04-.5-.04,.02,.1,1.75,.1,1.91,.05,3.74,3.25,7.33,7.15,7.15,3.83-.17,7.21-3.14,7.15-7.15-.14-10.45-6.62-19.38-16.34-23.03-9.11-3.43-20.4-.43-26.58,7.09-6.58,8.01-7.96,19.34-2.54,28.4,5.41,9.05,15.78,13.28,26,11.44,11.31-2.03,19.3-12.7,19.45-23.91,.05-3.74-3.33-7.32-7.15-7.15-3.92,.18-7.1,3.14-7.15,7.15Z"/>
  <path class="cls-1" d="M174.11,188.29c0,.48-.04,.96-.06,1.44-.05,1.37-.02-.47,.08-.49-.09,.02-.45,1.97-.53,2.26-.03,.11-.49,1.26-.46,1.3-.09-.09,.81-1.6,.16-.46-.45,.8-.89,1.56-1.39,2.33-.81,1.24,.88-.78,.15-.21-.28,.22-.51,.58-.76,.83-.21,.21-.42,.42-.64,.63l-.33,.3c-.58,.49-.45,.4,.4-.27-.16-.06-1.72,1.14-1.89,1.23-.26,.15-.54,.27-.8,.42-1.19,.69,1.52-.43-.18,.08-.74,.22-1.47,.46-2.23,.62-1.46,.3,.19-.18,.28,0-.02-.04-1.06,.08-1.19,.09-.81,.03-1.6-.03-2.4-.07-1.04-.05,1.81,.37,.27,.02-.46-.1-.91-.2-1.36-.32s-.87-.28-1.31-.43c-1.03-.33,.46-.06,.44,.2,0-.08-1.74-.93-1.99-1.08-.31-.2-.61-.45-.93-.64-.83-.47,1.28,1.18,.22,.13-.17-.17-1.87-1.94-1.88-1.93,.19-.08,.88,1.27,.29,.38-.25-.38-.51-.75-.74-1.13-.15-.26-.3-.52-.44-.79l-.21-.4c-.32-.7-.27-.54,.16,.46,.09-.09-.65-1.96-.71-2.19-.08-.3-.13-.61-.2-.91-.32-1.42,.11,1.66-.02-.21-.05-.72-.06-1.45-.02-2.17,.04-.78,.54-1.55-.05,.02,.1-.26,.12-.64,.18-.92,.17-.76,.42-1.48,.65-2.21,.48-1.51-.78,1.4,0,.03,.23-.39,.42-.8,.65-1.19,.19-.32,.41-.63,.61-.95,.76-1.21,.07,.29-.17,.19,.02,0,1.44-1.53,1.55-1.63l.33-.3c.47-.39,.46-.39-.03-.01l-.37,.28c.24-.18,.49-.35,.74-.52,.29-.2,2.38-1.26,2.37-1.33,0,.09-1.71,.61-.44,.2,.44-.14,.87-.3,1.31-.43,.3-.08,.6-.16,.9-.23,.34-.08,1.54-.02,.44-.11-1.2-.1,.23,0,.47-.02,.4-.02,.8-.03,1.21-.02s.8,.04,1.2,.06c1.54,.05-1.4-.34-.03,0,.9,.23,1.78,.46,2.67,.75,1.43,.46-1-.65-.24-.1,.41,.3,.96,.49,1.4,.75,.26,.15,.51,.32,.76,.48,.25,.17,.5,.34,.74,.52-.85-.66-.98-.75-.4-.27,.53,.53,1.06,1.06,1.59,1.59,1.1,1.1-.85-1.35,0-.03,.25,.38,.51,.75,.74,1.13s.43,.8,.65,1.19c.68,1.19-.45-1.45,0-.03,.28,.89,.52,1.76,.75,2.67,.27,1.08-.31-.38-.04-.5-.04,.02,.1,1.75,.1,1.91,.05,3.74,3.25,7.33,7.15,7.15,3.83-.17,7.21-3.14,7.15-7.15-.14-10.45-6.62-19.38-16.34-23.03-9.11-3.43-20.4-.43-26.58,7.09-6.58,8.01-7.96,19.34-2.54,28.4,5.41,9.05,15.78,13.28,26,11.44,11.31-2.03,19.3-12.7,19.45-23.91,.05-3.74-3.33-7.32-7.15-7.15-3.92,.18-7.1,3.14-7.15,7.15Z"/>
</svg>