<?xml version="1.0" encoding="UTF-8"?>
<svg id="Capa_1" data-name="Capa 1" xmlns="http://www.w3.org/2000/svg" viewBox="0 0 283.46 283.46">
  <defs>
    <style>
      .cls-1 {
        fill: #fff;
      }

      .cls-2 {
        fill: #e77254;
      }
    </style>
  </defs>
  <path class="cls-1" d="M141.66,40.05c16.43,0,32.86-.08,49.29,.04,6,.05,12.03,.23,17.98,.95,15.49,1.88,28.21,13.26,32.37,28.47,1.45,5.29,1.77,10.7,1.8,16.12,.1,19.18,.12,38.37,.15,57.55,.02,15.57,.1,31.13-.04,46.7-.06,6.49-.16,13.04-1.07,19.45-2.32,16.29-13.89,28.57-29.89,32.37-5.89,1.4-11.91,1.41-17.91,1.54-2.3,.05-4.6,0-6.9,0-19.7,.06-39.41,.17-59.11,.17-14.52,0-29.04-.09-43.56-.28-7.7-.1-15.33-.91-22.33-4.54-12.3-6.37-19.46-16.49-21.35-30.18-.67-4.87-.87-9.84-.88-14.77-.06-35.34-.07-70.68,.02-106.02,.02-7.28,.27-14.6,2.98-21.52,5.27-13.47,15.05-21.88,29.17-24.7,5.6-1.12,11.45-1.26,17.2-1.32,17.36-.16,34.72-.06,52.08-.06Z"/>
  <path class="cls-2" d="M155.1,172.54v70.9h-30.03v-70.95h-24.7v-27.98h24.73c0-.72,0-1.28,0-1.83,.08-7.96-.17-15.93,.32-23.86,.62-10.21,4.42-19.17,12.42-25.92,4.81-4.06,10.63-5.77,16.73-6.75,9.47-1.53,18.77-.28,28.14,1.52v23.43c-.5,.02-1.01,.06-1.51,.07-4.04,.09-8.09,.16-12.13,.28-8.11,.24-12.05,5.69-13.11,11.46-.5,2.7-.73,5.48-.82,8.23-.13,4.37-.04,8.75-.04,13.32h26.64c-.38,2.94-.71,5.66-1.07,8.38-.82,6.14-1.69,12.27-2.46,18.41-.13,1.05-.48,1.34-1.5,1.33-6.62-.04-13.24-.02-19.85-.02h-1.78Z"/>
</svg>