<?xml version="1.0" encoding="UTF-8"?>
<svg id="Capa_1" data-name="Capa 1" xmlns="http://www.w3.org/2000/svg" viewBox="0 0 283.46 283.46">
  <defs>
    <style>
      .cls-1 {
        fill: #fff;
      }
    </style>
  </defs>
  <path class="cls-1" d="M141.82,26.78c17.66,.61,35.09,.67,52.44,1.92,28.86,2.08,51.44,23.71,52.47,52.45,1.26,35.15,1.25,70.41,0,105.56-1.01,28.47-23.59,51.15-51.96,52.17-35.15,1.26-70.41,1.29-105.56,.02-28.88-1.04-51.44-23.52-52.47-52.26-1.26-35.15-1.25-70.41,0-105.56,1.01-28.48,23.62-50.32,51.96-52.34,17.74-1.27,35.56-1.35,53.12-1.96Zm-.21,193.73s0-.02,0-.04c16.06,0,32.13,.5,48.17-.12,22.55-.88,37.89-15.87,38.37-38.44,.68-31.91,.68-63.85,.01-95.76-.48-22.93-15.76-38.18-38.7-38.67-31.33-.68-62.69-.75-94.02-.05-24.98,.56-39.64,15.25-40.18,40.21-.68,31.13-.63,62.3,.04,93.44,.51,23.68,15.62,38.44,39.31,39.33,15.65,.59,31.34,.11,47.01,.11Z"/>
  <path class="cls-1" d="M141.47,188.8c-30.02-.2-54.62-24.91-54.65-54.88-.02-30.16,25.13-55.2,55.18-54.93,30.09,.27,54.62,24.91,54.64,54.88,.03,30.17-25.05,55.14-55.18,54.93Zm.28-19.37c19.63,0,35.42-15.67,35.52-35.25,.1-19.93-15.67-35.82-35.54-35.81-19.63,0-35.42,15.68-35.52,35.25-.1,19.93,15.67,35.81,35.54,35.81Z"/>
  <path class="cls-1" d="M198.7,89.5c-7.2,0-12.47-5.14-12.59-12.32-.13-7.44,5.25-12.97,12.61-12.97,7.06,0,12.53,5.36,12.67,12.42,.15,7.36-5.28,12.86-12.7,12.87Z"/>
</svg>