<?xml version="1.0" encoding="UTF-8"?>
<svg id="Capa_1" data-name="Capa 1" xmlns="http://www.w3.org/2000/svg" viewBox="0 0 283.46 283.46">
  <defs>
    <style>
      .cls-1 {
        fill: #fff;
      }

      .cls-2 {
        fill: #e77254;
      }
    </style>
  </defs>
  <path class="cls-1" d="M145.8,46.19c15.49,0,30.99-.08,46.48,.04,5.66,.04,11.35,.22,16.95,.9,14.6,1.77,26.6,12.49,30.52,26.82,1.36,4.98,1.67,10.08,1.7,15.19,.09,18.07,.12,36.14,.14,54.21,.02,14.66,.1,29.33-.04,43.99-.06,6.11-.15,12.29-1.01,18.32-2.18,15.35-13.1,26.91-28.18,30.49-5.55,1.32-11.23,1.33-16.89,1.45-2.17,.05-4.33,0-6.5,0-18.58,.06-37.15,.16-55.73,.16-13.69,0-27.38-.09-41.07-.27-7.26-.09-14.46-.86-21.05-4.27-11.59-6-18.35-15.54-20.13-28.43-.64-4.59-.82-9.27-.83-13.91-.06-33.29-.06-66.58,.02-99.87,.02-6.85,.26-13.75,2.81-20.27,4.97-12.69,14.19-20.61,27.5-23.27,5.28-1.06,10.8-1.19,16.21-1.24,16.37-.15,32.74-.05,49.1-.05Z"/>
  <path class="cls-2" d="M139.69,146.32c-1.83-.21-3.63-.58-5.43-.59-7.84-.05-13.83,3.44-17.5,10.26-3.65,6.78-3.44,13.83,1.16,20.07,4.29,5.82,11.37,9.85,20.73,7.67,7.56-1.76,13.57-8.63,14.4-16.2,.07-.68,.05-1.38,.05-2.06,0-29.76,0-59.52,0-89.29,0-.54,.03-1.08,0-1.62-.04-1.04,.37-1.52,1.47-1.51,4.87,.03,9.74,.03,14.61,0,.92,0,1.35,.41,1.52,1.24,1.82,9.01,7.12,15.69,14.46,20.78,4.57,3.17,9.9,4.49,15.45,4.82,.34,.02,.69,.02,1.03,.05,.09,0,.17,.08,.35,.17v27.93c-4.58-.46-8.98-1.46-13.11-3.27-4.11-1.8-8.08-3.94-12.2-5.99,0,.42,0,.98,0,1.55,0,14.91,.17,29.81-.05,44.72-.24,16.67-7.71,29.41-22.29,37.51-16.5,9.17-36.59,6.19-50.16-6.95-12.41-12.02-15.92-26.64-11.08-42.84,4.87-16.31,16.43-26.05,33.06-29.63,4.16-.9,8.42-.71,12.63-.17,.38,.05,.99,.66,1,1.02,.05,7.33,.04,14.66,.02,21.99,0,.14-.09,.27-.12,.36Z"/>
</svg>