<?xml version="1.0" encoding="UTF-8"?>
<svg id="Capa_1" data-name="Capa 1" xmlns="http://www.w3.org/2000/svg" viewBox="0 0 196.34 197.13">
  <defs>
    <style>
      .cls-1 {
        fill: #fff;
      }
    </style>
  </defs>
  <path class="cls-1" d="M0,197.13c3.15-11.55,6.2-22.73,9.25-33.91,1.29-4.7,2.52-9.42,3.93-14.09,.52-1.74,.34-3.12-.53-4.73C3.19,127.08-.83,108.48,1.24,88.93,4.88,54.66,21.83,28.51,52.06,12.01c57.02-31.12,127.35,1.05,141.84,64.38,12.44,54.35-24.1,108.62-79.29,117.78-21.27,3.53-41.49,.24-60.77-9.33-1.27-.63-3.1-.8-4.47-.45-15.63,3.99-31.22,8.12-46.82,12.2-.68,.18-1.38,.3-2.55,.54Zm23.58-23.36c.69-.1,1.02-.12,1.34-.2,8.83-2.31,17.67-4.59,26.47-6.98,1.9-.52,3.42-.38,5.19,.67,16.95,10.11,35.26,13.77,54.74,10.7,43.97-6.92,73.95-48.19,67.36-92.48-6.63-44.51-49.04-75.23-93.55-67.75C30.62,26.89,.97,86.9,26.79,135.8c5.24,5.79,4.55,12.07,2.11,18.88-2.19,6.12-3.53,12.54-5.31,19.09Z"/>
  <path class="cls-1" d="M124.32,148.26c-3.78-.87-7.64-1.5-11.33-2.64-22.95-7.1-40.37-21.36-53.35-41.36-4.74-7.31-9.56-14.54-11.33-23.29-2.25-11.07,.57-20.54,8.85-28.3,3.43-3.22,9.55-4.25,13.64-1.95,1.57,.88,3.08,2.53,3.77,4.18,2.6,6.31,5,12.71,7.11,19.19,.49,1.51,.03,3.77-.82,5.17-1.46,2.39-3.61,4.36-5.41,6.55-2.49,3.01-2.57,4.34-.69,7.66,7.2,12.75,17.42,22.3,30.5,28.83,4.31,2.15,5.61,1.96,8.8-1.53,2.27-2.49,4.53-5.01,6.6-7.67,1.58-2.03,3.39-2.55,5.57-1.42,6.93,3.59,13.81,7.26,20.71,10.9,2.08,1.1,1.88,3.03,1.67,4.91-1.16,10.49-5.81,15.85-18.37,19.63-1.84,.55-3.84,.56-5.77,.83-.05,.11-.09,.21-.14,.32Z"/>
</svg>