<?xml version="1.0" encoding="UTF-8"?>
<svg id="Capa_1" data-name="Capa 1" xmlns="http://www.w3.org/2000/svg" xmlns:xlink="http://www.w3.org/1999/xlink" viewBox="0 0 1259.7 478.5">
  <defs>
    <style>
      .cls-1 {
        fill: #e67051;
      }

      .cls-2 {
        fill: #eac46b;
      }

      .cls-3 {
        fill: #75c3bd;
      }
    </style>
  </defs>
  <rect class="cls-3" y="8.84" width="1259.7" height="460.81" rx="51.47" ry="51.47"/>
  <g>
    <path class="cls-1" d="M179.52,191.56c-5.58-2.74-35.06-11.48-48.09-3.41-10.91,6.76-11.19,21.07-12.72,44.37-1.53,23.36,.54,40.43,7.14,46.23,10.24,9,36.74,4.25,45.92,1.24,8.38-2.75,42.73-14.03,45.3-40.18,2.73-27.89-33.29-46.15-37.54-48.24Zm-29.63,62.36c-.81-.73-1.59-1.94-1.86-4.03v-32.93c0-1.53,.64-3.03,1.84-3.97,0,0,.01,0,.02-.01,8.56-6.68,38,6.83,38.01,20.79,0,16.91-30.78,26.66-38.01,20.17Z"/>
    <path class="cls-2" d="M294.89,252.99c-1.47-12.15,1.52-19.45-.21-28.13-3.08-15.52-26.68-24.82-52.33-20.48-11.41,1.93-22.4,8.27-20.06,17.17,2.38,9.06,17.24,2.75,23.99,2.07,11.44-1.15,16.72-1.57,21.3,1.65,4.01,2.82,5.86,6.87,3.93,9.72-2.63,3.87-49.64-10.13-49.64,23.79,0,18.2,32.52,25.56,47.16,16.55,4.14-2.55,11.71-8.74,16.37-6.82,2.32,.96,8.06,7.02,13.21,3.72,5.5-3.52,5.33-8.56,2.9-12-2.15-3.02-6.28-4.46-6.62-7.24Zm-50.88,6c-4.76-8.69,6.2-13.65,15.1-13.65s11.58,3.1,11.58,3.1c2.9,13.86-21.92,19.24-26.68,10.55Z"/>
    <path class="cls-1" d="M346.96,203.32c28.23,0,46.23,19.17,46.23,42.02s-6.2,25.34-13.96,25.34-13.65-4.45-14.58-25.34c-.93-20.89-12.1-21.82-16.44-21.82s-10.24,2.48-12.72,19.55c-2.48,17.06,.29,27.61-15.82,27.61s-13.03-20.18-12.41-30.88c.62-10.7,11.17-36.48,39.71-36.48Z"/>
    <path class="cls-2" d="M416.52,203.32c3.17,.47,5.82,1.35,7.87,3.19,3.91,3.51,4.92,9.01,4.85,18.56-.17,21.01-1.86,31.02-6.83,37.07-3.08,3.75-11.63,4.37-16.89,1.88-2.36-1.12-3.96-2.86-5.14-4.67-5.89-9-2.17-44.83,1.86-50.42,4.03-5.58,9.81-6.28,14.27-5.62Z"/>
    <path class="cls-1" d="M508.62,254.65c-7.79-7.5-33.21,8.21-43.85,2.69-4.08-2.12-5.85-5.46-5.85-5.46-1.62-3-1.39-5.71-1.39-5.71,0,0,18.61-2.69,30.92-4.96,12.31-2.28,20.17-7.65,18.3-19.86-1.86-12.2-15.72-20.48-36.61-18.23-14.91,1.6-33.88,12.42-36.4,32.51-2.47,19.61,7.75,33.69,21.51,38.47,7.85,2.73,19.17,3.29,29.37,1.65,8.15-1.31,23.62-3.8,25.85-12.41,.58-2.25,.62-6.29-1.86-8.69Zm-45.09-34.33c3.6-2.79,7.48-3.13,9.51-3.31,3.53-.31,8.06-.71,10.96,2.48,2.11,2.32,3.06,6.21,1.65,9.1-1.58,3.25-5.5,3.94-11.79,4.96-6.99,1.13-14.21,2.31-16.13-1.03-1.84-3.19,1.89-9.18,5.79-12.2Z"/>
    <path class="cls-1" d="M657.36,202.11c-23.13,0-41.88,15.79-41.88,35.27s18.75,35.27,41.88,35.27,41.88-15.79,41.88-35.27-18.75-35.27-41.88-35.27Zm-.62,49.64c-9.77,0-17.68-7.32-17.68-16.34s7.92-16.34,17.68-16.34,17.68,7.32,17.68,16.34-7.92,16.34-17.68,16.34Z"/>
    <path class="cls-2" d="M596.21,160.13c7.77-.07,14.98,7.29,14.27,16.34h25.68c.95,0,1.76,.72,1.83,1.67,.19,2.5,.04,7.03-2.9,11.36-1.39,2.05-3.04,3.51-4.52,4.53-1.85,1.27-4.08,1.88-6.33,1.88h-13.76c-.35,10.32-.6,24.16-.21,40.54,.63,26.64,2.12,38.49,7.66,40.21,5.63,1.75,11.96-8.02,18.36-5.03,3.41,1.59,4.42,5.69,4.6,6.39,1.99,8.04-6.01,17.72-14.48,21.72-7.65,3.61-17.17,3.28-24.41-.83-8.54-4.85-12.59-14.23-16.34-33.71-3.09-16.09-5.98-39.07-4.55-67.63h-20.5c-1.76,0-3.53-.09-5.26-.41-7.22-1.33-12.26-5.23-12.3-8.9-.04-4.28,5.38-8.69,15.93-9.51l23.37-1.24c-1.39-9.3,5.82-17.3,13.86-17.37Z"/>
    <path class="cls-1" d="M563.96,205.84c9.62-1.4,12.62,5.3,12,19.92-.62,14.62-.05,11.1,.08,16.28,.13,5.17,6.33,30.82-10.42,32.89s-15.93-14.48-16.96-27.92c-1.03-13.44-4.55-38.26,15.31-41.16Z"/>
    <path class="cls-2" d="M530.1,198.18c14.41-1.4,12.41,14.48,11.79,29.58-.62,15.1,.67,51.29,5.92,54.4,5.25,3.1,12.06-1.24,14.76-2.9,2.7-1.65,9.52,.21,8.49,6.83-1.03,6.62-5.13,15.33-23.25,16.15-18.12,.81-27.43-11.6-29.91-36.83-2.48-25.23-9.1-65.15,12.2-67.22Z"/>
  </g>
  <image width="1333" height="2000" transform="translate(802.95) scale(.24)" xlink:href="../bebe/child-wearing-knit-hat-studio-b.png"/>
</svg>