<?xml version="1.0" encoding="UTF-8"?>
<svg id="Capa_1" data-name="Capa 1" xmlns="http://www.w3.org/2000/svg" viewBox="0 0 530.69 143.45">
  <defs>
    <style>
      .cls-1 {
        fill: #fff;
      }
    </style>
  </defs>
  <path class="cls-1" d="M62.97,35.83c-4.96-2.43-31.17-10.21-42.75-3.03-9.7,6.01-9.95,18.73-11.31,39.44-1.36,20.77,.48,35.95,6.34,41.1,9.1,8,32.66,3.78,40.82,1.1,7.45-2.45,37.99-12.48,40.27-35.73,2.43-24.79-29.6-41.03-33.38-42.89Zm-26.34,55.44c-.72-.65-1.41-1.72-1.65-3.59v-29.28c0-1.36,.57-2.69,1.64-3.53,0,0,.01,0,.02-.01,7.61-5.94,33.79,6.08,33.79,18.48,0,15.03-27.37,23.71-33.79,17.93Z"/>
  <path class="cls-1" d="M165.54,90.45c-1.31-10.81,1.35-17.29-.18-25.01-2.74-13.8-23.72-22.07-46.52-18.21-10.15,1.72-19.91,7.36-17.84,15.26,2.12,8.06,15.33,2.44,21.33,1.84,10.17-1.03,14.87-1.39,18.94,1.47,3.57,2.51,5.21,6.11,3.49,8.64-2.34,3.44-44.13-9.01-44.13,21.15,0,16.18,28.91,22.72,41.93,14.71,3.68-2.26,10.41-7.77,14.55-6.07,2.06,.85,7.17,6.24,11.74,3.31,4.89-3.13,4.74-7.61,2.57-10.67-1.91-2.69-5.59-3.97-5.88-6.44Zm-45.24,5.33c-4.23-7.72,5.52-12.14,13.42-12.14s10.3,2.76,10.3,2.76c2.57,12.32-19.49,17.1-23.72,9.38Z"/>
  <path class="cls-1" d="M211.83,46.28c25.1,0,41.1,17.04,41.1,37.36s-5.52,22.53-12.41,22.53-12.14-3.95-12.96-22.53c-.83-18.57-10.76-19.4-14.62-19.4s-9.1,2.21-11.31,17.38c-2.21,15.17,.25,24.55-14.07,24.55s-11.59-17.94-11.03-27.45c.55-9.51,9.93-32.44,35.31-32.44Z"/>
  <path class="cls-1" d="M273.67,46.28c2.82,.42,5.18,1.2,7,2.84,3.47,3.12,4.38,8.01,4.31,16.5-.15,18.68-1.65,27.58-6.07,32.96-2.74,3.34-10.34,3.88-15.01,1.67-2.1-1-3.52-2.54-4.57-4.15-5.24-8-1.93-39.86,1.66-44.82,3.59-4.96,8.72-5.58,12.69-5Z"/>
  <path class="cls-1" d="M355.56,91.92c-6.93-6.67-29.53,7.3-38.98,2.39-3.63-1.88-5.2-4.85-5.2-4.85-1.44-2.67-1.23-5.08-1.23-5.08,0,0,16.55-2.39,27.49-4.41,10.94-2.02,17.93-6.8,16.27-17.65-1.66-10.85-13.98-18.21-32.55-16.21-13.26,1.42-30.12,11.05-32.36,28.9-2.19,17.44,6.89,29.95,19.12,34.2,6.98,2.43,17.05,2.93,26.11,1.47,7.24-1.16,21-3.38,22.99-11.03,.52-2,.55-5.6-1.65-7.72Zm-40.09-30.53c3.2-2.48,6.65-2.78,8.46-2.94,3.14-.28,7.16-.63,9.75,2.21,1.88,2.07,2.72,5.52,1.47,8.09-1.4,2.89-4.89,3.51-10.48,4.41-6.22,1.01-12.63,2.05-14.34-.92-1.64-2.83,1.68-8.16,5.15-10.85Z"/>
  <path class="cls-1" d="M487.8,45.21c-20.57,0-37.24,14.04-37.24,31.35s16.67,31.35,37.24,31.35,37.24-14.04,37.24-31.35-16.67-31.35-37.24-31.35Zm-.55,44.13c-8.68,0-15.72-6.5-15.72-14.53s7.04-14.53,15.72-14.53,15.72,6.5,15.72,14.53-7.04,14.53-15.72,14.53Z"/>
  <path class="cls-1" d="M433.43,7.88c6.91-.06,13.32,6.48,12.69,14.53h22.83c.85,0,1.56,.64,1.63,1.49,.17,2.22,.03,6.25-2.58,10.1-1.24,1.83-2.7,3.12-4.02,4.03-1.65,1.13-3.63,1.67-5.63,1.67h-12.23c-.31,9.18-.53,21.48-.18,36.04,.56,23.69,1.89,34.22,6.81,35.75,5.01,1.56,10.64-7.13,16.32-4.48,3.03,1.42,3.93,5.06,4.09,5.68,1.77,7.15-5.34,15.76-12.87,19.31-6.8,3.21-15.26,2.92-21.7-.74-7.6-4.31-11.2-12.65-14.53-29.97-2.75-14.3-5.32-34.73-4.05-60.13h-18.23c-1.56,0-3.14-.08-4.67-.36-6.42-1.19-10.9-4.65-10.93-7.91-.04-3.81,4.78-7.72,14.16-8.46l20.78-1.1c-1.24-8.27,5.18-15.38,12.32-15.45Z"/>
  <path class="cls-1" d="M404.76,48.52c8.55-1.25,11.22,4.71,10.67,17.71-.55,13-.04,9.87,.07,14.47,.11,4.6,5.63,27.4-9.27,29.24-14.9,1.84-14.16-12.87-15.08-24.83-.92-11.95-4.05-34.02,13.61-36.59Z"/>
  <path class="cls-1" d="M374.66,41.72c12.81-1.24,11.03,12.87,10.48,26.3-.55,13.42,.59,45.6,5.26,48.36,4.67,2.76,10.72-1.1,13.12-2.57s8.47,.18,7.55,6.07c-.92,5.88-4.56,13.63-20.67,14.36-16.11,.72-24.39-10.31-26.59-32.75-2.21-22.43-8.09-57.93,10.85-59.76Z"/>
</svg>