<?xml version="1.0" encoding="UTF-8"?>
<svg id="Capa_1" data-name="Capa 1" xmlns="http://www.w3.org/2000/svg" viewBox="0 0 283.46 283.46">
  <defs>
    <style>
      .cls-1 {
        fill: #e67051;
      }

      .cls-2 {
        fill: #eac46b;
      }
    </style>
  </defs>
  <path class="cls-1" d="M35.09,121.38c-2.49-1.22-15.66-5.13-21.48-1.52-4.88,3.02-5,9.41-5.68,19.82-.69,10.44,.24,18.06,3.19,20.65,4.57,4.02,16.41,1.9,20.51,.55,3.74-1.23,19.09-6.27,20.24-17.95,1.22-12.46-14.87-20.62-16.77-21.55Zm-13.24,27.86c-.36-.33-.71-.87-.83-1.8v-14.71c0-.68,.29-1.35,.82-1.77,0,0,0,0,0,0,3.82-2.99,16.98,3.05,16.98,9.29,0,7.55-13.75,11.91-16.98,9.01Z"/>
  <path class="cls-2" d="M86.63,148.82c-.66-5.43,.68-8.69-.09-12.57-1.38-6.94-11.92-11.09-23.38-9.15-5.1,.86-10.01,3.7-8.96,7.67,1.06,4.05,7.7,1.23,10.72,.92,5.11-.52,7.47-.7,9.52,.74,1.79,1.26,2.62,3.07,1.76,4.34-1.17,1.73-22.18-4.53-22.18,10.63,0,8.13,14.53,11.42,21.07,7.39,1.85-1.14,5.23-3.91,7.31-3.05,1.04,.43,3.6,3.13,5.9,1.66,2.46-1.57,2.38-3.83,1.29-5.36-.96-1.35-2.81-1.99-2.96-3.23Zm-22.73,2.68c-2.13-3.88,2.77-6.1,6.75-6.1s5.17,1.39,5.17,1.39c1.29,6.19-9.79,8.59-11.92,4.71Z"/>
  <path class="cls-1" d="M109.89,126.63c12.61,0,20.65,8.56,20.65,18.77s-2.77,11.32-6.24,11.32-6.1-1.99-6.51-11.32c-.42-9.33-5.41-9.75-7.35-9.75s-4.57,1.11-5.68,8.73c-1.11,7.62,.13,12.34-7.07,12.34s-5.82-9.02-5.54-13.79,4.99-16.3,17.74-16.3Z"/>
  <path class="cls-2" d="M140.97,126.63c1.42,.21,2.6,.61,3.52,1.43,1.75,1.57,2.2,4.03,2.17,8.29-.08,9.39-.83,13.86-3.05,16.56-1.38,1.68-5.2,1.95-7.54,.84-1.06-.5-1.77-1.28-2.3-2.09-2.63-4.02-.97-20.03,.83-22.52,1.8-2.49,4.38-2.8,6.38-2.51Z"/>
  <path class="cls-1" d="M182.12,149.56c-3.48-3.35-14.84,3.67-19.59,1.2-1.82-.95-2.62-2.44-2.62-2.44-.72-1.34-.62-2.55-.62-2.55,0,0,8.32-1.2,13.81-2.22,5.5-1.02,9.01-3.42,8.18-8.87-.83-5.45-7.02-9.15-16.36-8.15-6.66,.72-15.13,5.55-16.26,14.52-1.1,8.76,3.46,15.05,9.61,17.19,3.51,1.22,8.57,1.47,13.12,.74,3.64-.59,10.55-1.7,11.55-5.54,.26-1,.28-2.81-.83-3.88Zm-20.14-15.34c1.61-1.25,3.34-1.4,4.25-1.48,1.58-.14,3.6-.32,4.9,1.11,.94,1.04,1.37,2.78,.74,4.07-.71,1.45-2.46,1.76-5.27,2.22-3.12,.51-6.35,1.03-7.21-.46-.82-1.42,.84-4.1,2.59-5.45Z"/>
  <path class="cls-1" d="M248.57,126.09c-10.33,0-18.71,7.05-18.71,15.75s8.38,15.75,18.71,15.75,18.71-7.05,18.71-15.75-8.38-15.75-18.71-15.75Zm-.28,22.18c-4.36,0-7.9-3.27-7.9-7.3s3.54-7.3,7.9-7.3,7.9,3.27,7.9,7.3-3.54,7.3-7.9,7.3Z"/>
  <path class="cls-2" d="M221.25,107.33c3.47-.03,6.69,3.26,6.38,7.3h11.47c.43,0,.79,.32,.82,.75,.09,1.12,.02,3.14-1.3,5.07-.62,.92-1.36,1.57-2.02,2.02-.83,.57-1.82,.84-2.83,.84h-6.15c-.16,4.61-.27,10.8-.09,18.11,.28,11.9,.95,17.2,3.42,17.97,2.52,.78,5.34-3.58,8.2-2.25,1.52,.71,1.98,2.54,2.05,2.86,.89,3.59-2.68,7.92-6.47,9.7-3.42,1.61-7.67,1.47-10.9-.37-3.82-2.17-5.63-6.36-7.3-15.06-1.38-7.19-2.67-17.45-2.03-30.22h-9.16c-.79,0-1.58-.04-2.35-.18-3.22-.6-5.48-2.34-5.49-3.98-.02-1.91,2.4-3.88,7.12-4.25l10.44-.55c-.62-4.16,2.6-7.73,6.19-7.76Z"/>
  <path class="cls-1" d="M206.84,127.75c4.3-.63,5.64,2.37,5.36,8.9-.28,6.53-.02,4.96,.04,7.27s2.83,13.77-4.66,14.69c-7.48,.92-7.12-6.47-7.58-12.47s-2.03-17.09,6.84-18.39Z"/>
  <path class="cls-2" d="M191.71,124.33c6.44-.63,5.54,6.47,5.27,13.21-.28,6.75,.3,22.92,2.64,24.3,2.35,1.39,5.39-.55,6.59-1.29s4.25,.09,3.79,3.05-2.29,6.85-10.39,7.21c-8.1,.36-12.25-5.18-13.36-16.45-1.11-11.27-4.07-29.11,5.45-30.03Z"/>
</svg>